<?xml version="1.0" encoding="UTF-8" standalone="no"?>
<!DOCTYPE svg PUBLIC "-//W3C//DTD SVG 1.1//EN" "http://www.w3.org/Graphics/SVG/1.1/DTD/svg11.dtd">
<svg width="100%" height="100%" viewBox="0 0 500 288" version="1.1" xmlns="http://www.w3.org/2000/svg" xmlns:xlink="http://www.w3.org/1999/xlink" xml:space="preserve" xmlns:serif="http://www.serif.com/" style="fill-rule:evenodd;clip-rule:evenodd;stroke-linejoin:round;stroke-miterlimit:2;">
    <g id="Layer1">
        <path d="M217.013,220.012L217.013,278.007L39.019,278.007C21.419,272.586 11.934,261.115 10.008,244.009L10.008,44.004C11.971,25.725 21.053,13.352 41.002,9.995L139.997,9.995L169.001,39.481L141.003,68L68.996,68L68.996,220.012L217.013,220.012Z" style="fill:rgb(136,0,21);"/>
        <g transform="matrix(1.07152,0,0,1.25793,-24.5507,-25.2271)">
            <g transform="matrix(101.83,0,0,107.917,102.057,171.429)">
                <path d="M0.381,-0.159C0.381,-0.256 0.34,-0.324 0.234,-0.397C0.143,-0.461 0.125,-0.501 0.125,-0.557C0.125,-0.601 0.151,-0.646 0.207,-0.646C0.258,-0.646 0.285,-0.615 0.313,-0.56L0.373,-0.594C0.339,-0.666 0.296,-0.711 0.21,-0.711C0.116,-0.711 0.055,-0.643 0.055,-0.552C0.055,-0.46 0.091,-0.409 0.19,-0.339C0.282,-0.274 0.311,-0.219 0.311,-0.151C0.311,-0.093 0.274,-0.054 0.214,-0.054C0.163,-0.054 0.131,-0.089 0.104,-0.157L0.04,-0.128C0.07,-0.041 0.124,0.011 0.212,0.011C0.317,0.011 0.381,-0.06 0.381,-0.159Z" style="fill:rgb(229,229,229);fill-rule:nonzero;"/>
            </g>
            <g transform="matrix(101.83,0,0,107.917,144.622,171.429)">
                <path d="M0.384,-0.636L0.384,-0.7L0.032,-0.7L0.032,-0.636L0.173,-0.636L0.173,0L0.242,0L0.242,-0.636L0.384,-0.636Z" style="fill:rgb(229,229,229);fill-rule:nonzero;"/>
            </g>
            <g transform="matrix(101.83,0,0,107.917,181.79,171.429)">
                <path d="M0.444,0L0.278,-0.7L0.204,-0.7L0.038,0L0.107,0L0.149,-0.182L0.332,-0.182L0.373,0L0.444,0ZM0.317,-0.247L0.163,-0.247L0.202,-0.421C0.217,-0.486 0.233,-0.561 0.24,-0.613C0.248,-0.561 0.263,-0.488 0.278,-0.422L0.317,-0.247Z" style="fill:rgb(229,229,229);fill-rule:nonzero;"/>
            </g>
            <g transform="matrix(101.83,0,0,107.917,230.872,171.429)">
                <path d="M0.413,-0.506C0.413,-0.64 0.335,-0.7 0.232,-0.7L0.07,-0.7L0.07,0L0.14,0L0.14,-0.302L0.223,-0.302C0.328,-0.302 0.413,-0.367 0.413,-0.506ZM0.343,-0.502C0.343,-0.414 0.302,-0.367 0.226,-0.367L0.14,-0.367L0.14,-0.635L0.229,-0.635C0.302,-0.635 0.343,-0.589 0.343,-0.502Z" style="fill:rgb(229,229,229);fill-rule:nonzero;"/>
            </g>
            <g transform="matrix(101.83,0,0,107.917,276.39,171.429)">
                <path d="M0.363,0L0.363,-0.065L0.14,-0.065L0.14,-0.7L0.07,-0.7L0.07,0L0.363,0Z" style="fill:rgb(229,229,229);fill-rule:nonzero;"/>
            </g>
            <g transform="matrix(101.83,0,0,107.917,317.123,171.429)">
                <path d="M0.381,0L0.381,-0.065L0.14,-0.065L0.14,-0.341L0.284,-0.341L0.284,-0.407L0.14,-0.407L0.14,-0.635L0.369,-0.635L0.369,-0.7L0.07,-0.7L0.07,0L0.381,0Z" style="fill:rgb(229,229,229);fill-rule:nonzero;"/>
            </g>
            <g transform="matrix(101.83,0,0,107.917,359.993,171.429)">
                <path d="M0.444,0L0.278,-0.7L0.204,-0.7L0.038,0L0.107,0L0.149,-0.182L0.332,-0.182L0.373,0L0.444,0ZM0.317,-0.247L0.163,-0.247L0.202,-0.421C0.217,-0.486 0.233,-0.561 0.24,-0.613C0.248,-0.561 0.263,-0.488 0.278,-0.422L0.317,-0.247Z" style="fill:rgb(136,0,21);fill-rule:nonzero;"/>
            </g>
            <g transform="matrix(101.83,0,0,107.917,409.075,171.429)">
                <path d="M0.413,-0.506C0.413,-0.64 0.335,-0.7 0.232,-0.7L0.07,-0.7L0.07,0L0.14,0L0.14,-0.302L0.223,-0.302C0.328,-0.302 0.413,-0.367 0.413,-0.506ZM0.343,-0.502C0.343,-0.414 0.302,-0.367 0.226,-0.367L0.14,-0.367L0.14,-0.635L0.229,-0.635C0.302,-0.635 0.343,-0.589 0.343,-0.502Z" style="fill:rgb(136,0,21);fill-rule:nonzero;"/>
            </g>
            <g transform="matrix(101.83,0,0,107.917,454.593,171.429)">
                <rect x="0.075" y="-0.7" width="0.07" height="0.7" style="fill:rgb(136,0,21);fill-rule:nonzero;"/>
            </g>
        </g>
    </g>
</svg>
